<svg width="100" height="100" viewBox="0 0 100 100" fill="none" xmlns="http://www.w3.org/2000/svg">
<path d="M39.3 0C35.5074 0 31.8701 1.50668 29.1884 4.18858C26.5066 6.87049 25 10.5079 25 14.3007V22.7011H46.45C48.4 22.7011 50 25.5513 50 27.5014H14.3C10.5074 27.5014 6.87014 29.0081 4.18837 31.69C1.5066 34.3719 0 38.0093 0 41.8021V60.708C0 64.5008 1.5066 68.1383 4.18837 70.8202C6.87014 73.5021 10.5074 75.0088 14.3 75.0088H20.2V61.6081C20.1934 59.7324 20.5571 57.874 21.2703 56.1392C21.9835 54.4045 23.0321 52.8276 24.356 51.499C25.6799 50.1704 27.253 49.1162 28.9852 48.3969C30.7173 47.6776 32.5745 47.3074 34.45 47.3074H60.7C68.6 47.3074 75 40.952 75 33.0517V14.3007C75 10.5079 73.4934 6.87049 70.8116 4.18858C68.1299 1.50668 64.4926 0 60.7 0H39.3ZM35.7 8.0504C37.7 8.0504 39.3 8.65043 39.3 11.6006C39.3 14.5507 37.7 16.0558 35.7 16.0558C33.75 16.0558 32.15 14.5557 32.15 11.6056C32.15 8.65543 33.75 8.0504 35.7 8.0504Z" fill="#0288D1"/>
<path d="M79.795 25.0015V38.4021C79.8009 40.2773 79.4367 42.1353 78.7232 43.8695C78.0098 45.6036 76.961 47.1799 75.6372 48.508C74.3134 49.8361 72.7405 50.8898 71.0087 51.6088C69.2768 52.3278 67.4201 52.6979 65.545 52.6978H39.3C37.4245 52.6913 35.5661 53.055 33.8314 53.7682C32.0967 54.4815 30.5199 55.5301 29.1914 56.8541C27.8629 58.178 26.8087 59.7512 26.0895 61.4835C25.3702 63.2157 25 65.0729 25 66.9486V85.6995C25 89.4923 26.5066 93.1297 29.1884 95.8116C31.8701 98.4935 35.5074 100 39.3 100H60.7C64.4917 100 68.1282 98.4942 70.8099 95.8134C73.4915 93.1326 74.9987 89.4964 75 85.7045V77.3041H53.545C51.595 77.3041 50 74.4539 50 72.5038H85.7C89.4926 72.5038 93.1299 70.9972 95.8116 68.3153C98.4934 65.6334 100 61.9959 100 58.2031V39.3022C100 35.5094 98.4934 31.872 95.8116 29.19C93.1299 26.5081 89.4926 25.0015 85.7 25.0015H79.795ZM31.6 47.5676L31.58 47.5876L31.77 47.5676H31.6ZM64.3 83.9494C66.25 83.9494 67.85 85.4495 67.85 88.3996C67.85 88.8659 67.7582 89.3275 67.5798 89.7582C67.4014 90.1889 67.1399 90.5803 66.8102 90.91C66.4806 91.2396 66.0892 91.5012 65.6585 91.6796C65.2278 91.858 64.7662 91.9498 64.3 91.9498C62.3 91.9498 60.7 91.3498 60.7 88.3996C60.7 85.4495 62.3 83.9494 64.3 83.9494Z" fill="#FDD835"/>
</svg>
