<svg width="100" height="100" viewBox="0 0 100 100" fill="none" xmlns="http://www.w3.org/2000/svg">
<path d="M50.0032 20.0015C36.6696 20.0015 28.3391 26.6655 25.0032 39.9991C30.0016 33.3343 35.8368 30.8351 42.5016 32.5015C46.3071 33.4499 49.0266 36.2093 52.0383 39.2671C56.9399 44.2413 62.6133 49.9999 75.0032 49.9999C88.336 49.9999 96.6672 43.3351 100.003 29.9983C95.0032 36.6666 89.1701 39.1671 82.504 37.4999C78.6993 36.5507 75.9829 33.7921 72.9672 30.7343C68.0688 25.7601 62.3969 20.0015 50.0032 20.0015ZM25.0032 49.9999C11.6704 49.9999 3.33911 56.6647 0.00317383 70.0015C5.00265 63.3332 10.8355 60.8327 17.5016 62.4999C21.3071 63.4491 24.0266 66.2077 27.0383 69.2655C31.9399 74.2397 37.6133 79.9983 50.0032 79.9983C63.336 79.9983 71.6672 73.3343 75.0032 60.0007C70.0032 66.6658 64.1701 69.165 57.504 67.4983C53.6993 66.5499 50.9829 63.7905 47.9672 60.7327C43.0688 55.7585 37.3969 49.9999 25.0032 49.9999Z" fill="#38BDF8"/>
</svg>
